<?xml version="1.0" encoding="UTF-8" standalone="no"?><!DOCTYPE svg PUBLIC "-//W3C//DTD SVG 1.1//EN" "http://www.w3.org/Graphics/SVG/1.1/DTD/svg11.dtd"><!-- Generated by graphviz version 2.40.1 (20161225.0304)
 --><!-- Title: %0 Pages: 1 --><svg xmlns="http://www.w3.org/2000/svg" xmlns:xlink="http://www.w3.org/1999/xlink" width="611pt" height="620pt" viewBox="0.00 0.00 610.78 620.00">
<g id="graph0" class="graph" transform="scale(1 1) rotate(0) translate(4 616)">
<title>%0</title>
<polygon fill="#ffffff" stroke="transparent" points="-4,4 -4,-616 606.7816,-616 606.7816,4 -4,4"/>
<!-- robotic -->
<g id="node1" class="node">
<title>robotic</title>
<ellipse fill="none" stroke="#000000" cx="367.1914" cy="-18" rx="45.7673" ry="18"/>
<text text-anchor="middle" x="367.1914" y="-13.8" font-family="Times,serif" font-size="14.00" fill="#000000">robotic 4</text>
</g>
<!-- matrix -->
<g id="node2" class="node">
<title>matrix</title>
<ellipse fill="none" stroke="#000000" cx="426.1914" cy="-90" rx="43.4773" ry="18"/>
<text text-anchor="middle" x="426.1914" y="-85.8" font-family="Times,serif" font-size="14.00" fill="#000000">matrix 5</text>
</g>
<!-- matrix&#45;&gt;robotic -->
<g id="edge1" class="edge">
<title>matrix-&gt;robotic</title>
<path fill="none" stroke="#000000" d="M412.2092,-72.937C404.968,-64.1003 395.9829,-53.1354 387.9488,-43.3311"/>
<polygon fill="#000000" stroke="#000000" points="390.5285,-40.9571 381.4831,-35.4407 385.1141,-45.3939 390.5285,-40.9571"/>
</g>
<!-- optic_cable -->
<g id="node3" class="node">
<title>optic_cable</title>
<ellipse fill="none" stroke="#000000" cx="466.1914" cy="-162" rx="62.5826" ry="18"/>
<text text-anchor="middle" x="466.1914" y="-157.8" font-family="Times,serif" font-size="14.00" fill="#000000">optic_cable 3</text>
</g>
<!-- optic_cable&#45;&gt;matrix -->
<g id="edge3" class="edge">
<title>optic_cable-&gt;matrix</title>
<path fill="none" stroke="#000000" d="M456.3038,-144.2022C451.6536,-135.832 446.0137,-125.6802 440.8778,-116.4356"/>
<polygon fill="#000000" stroke="#000000" points="443.8813,-114.6348 435.9653,-107.593 437.7622,-118.0344 443.8813,-114.6348"/>
</g>
<!-- cristal_core -->
<g id="node4" class="node">
<title>cristal_core</title>
<ellipse fill="none" stroke="#000000" cx="179.1914" cy="-234" rx="68.2957" ry="18"/>
<text text-anchor="middle" x="179.1914" y="-229.8" font-family="Times,serif" font-size="14.00" fill="#000000">cristal_core 11</text>
</g>
<!-- cristal_core&#45;&gt;optic_cable -->
<g id="edge5" class="edge">
<title>cristal_core-&gt;optic_cable</title>
<path fill="none" stroke="#000000" d="M228.8553,-221.5408C278.895,-208.9872 356.0432,-189.633 408.7026,-176.4223"/>
<polygon fill="#000000" stroke="#000000" points="409.7174,-179.7762 418.5652,-173.948 408.0141,-172.9866 409.7174,-179.7762"/>
</g>
<!-- energy_plate -->
<g id="node5" class="node">
<title>energy_plate</title>
<ellipse fill="none" stroke="#000000" cx="94.1914" cy="-306" rx="72.9581" ry="18"/>
<text text-anchor="middle" x="94.1914" y="-301.8" font-family="Times,serif" font-size="14.00" fill="#000000">energy_plate 44</text>
</g>
<!-- energy_plate&#45;&gt;cristal_core -->
<g id="edge7" class="edge">
<title>energy_plate-&gt;cristal_core</title>
<path fill="none" stroke="#000000" d="M114.7675,-288.5708C125.6259,-279.3732 139.1135,-267.9484 150.9375,-257.9328"/>
<polygon fill="#000000" stroke="#000000" points="153.4365,-260.4028 158.8048,-251.2687 148.9121,-255.0615 153.4365,-260.4028"/>
</g>
<!-- frame -->
<g id="node16" class="node">
<title>frame</title>
<ellipse fill="none" stroke="#000000" cx="344.1914" cy="-162" rx="40.5898" ry="18"/>
<text text-anchor="middle" x="344.1914" y="-157.8" font-family="Times,serif" font-size="14.00" fill="#000000">frame 8</text>
</g>
<!-- energy_plate&#45;&gt;frame -->
<g id="edge24" class="edge">
<title>energy_plate-&gt;frame</title>
<path fill="none" stroke="#000000" d="M90.0963,-287.7095C86.7554,-267.6079 85.0221,-235.5776 102.1914,-216 126.9605,-187.7566 230.4407,-172.9244 293.7928,-166.3446"/>
<polygon fill="#000000" stroke="#000000" points="294.3796,-169.8033 303.9797,-165.3215 293.68,-162.8384 294.3796,-169.8033"/>
</g>
<!-- cristal -->
<g id="node6" class="node">
<title>cristal</title>
<ellipse fill="none" stroke="#000000" cx="265.1914" cy="-378" rx="46.9059" ry="18"/>
<text text-anchor="middle" x="265.1914" y="-373.8" font-family="Times,serif" font-size="14.00" fill="#000000">cristal 41</text>
</g>
<!-- cristal&#45;&gt;energy_plate -->
<g id="edge9" class="edge">
<title>cristal-&gt;energy_plate</title>
<path fill="none" stroke="#000000" d="M233.4284,-364.6261C207.2823,-353.6172 169.8614,-337.8611 140.397,-325.455"/>
<polygon fill="#000000" stroke="#000000" points="141.7092,-322.2099 131.1346,-321.555 138.9928,-328.6614 141.7092,-322.2099"/>
</g>
<!-- cristal_powder -->
<g id="node11" class="node">
<title>cristal_powder</title>
<ellipse fill="none" stroke="#000000" cx="265.1914" cy="-306" rx="80.4785" ry="18"/>
<text text-anchor="middle" x="265.1914" y="-301.8" font-family="Times,serif" font-size="14.00" fill="#000000">cristal_powder 12</text>
</g>
<!-- cristal&#45;&gt;cristal_powder -->
<g id="edge16" class="edge">
<title>cristal-&gt;cristal_powder</title>
<path fill="none" stroke="#000000" d="M265.1914,-359.8314C265.1914,-352.131 265.1914,-342.9743 265.1914,-334.4166"/>
<polygon fill="#000000" stroke="#000000" points="268.6915,-334.4132 265.1914,-324.4133 261.6915,-334.4133 268.6915,-334.4132"/>
</g>
<!-- cable -->
<g id="node13" class="node">
<title>cable</title>
<ellipse fill="none" stroke="#000000" cx="455.1914" cy="-234" rx="43.46" ry="18"/>
<text text-anchor="middle" x="455.1914" y="-229.8" font-family="Times,serif" font-size="14.00" fill="#000000">cable 23</text>
</g>
<!-- cristal&#45;&gt;cable -->
<g id="edge18" class="edge">
<title>cristal-&gt;cable</title>
<path fill="none" stroke="#000000" d="M292.645,-363.3574C310.755,-353.2199 334.652,-338.9117 354.1914,-324 372.6855,-309.8861 374.9098,-303.575 392.1914,-288 403.73,-277.6009 416.7254,-266.3818 427.9033,-256.8784"/>
<polygon fill="#000000" stroke="#000000" points="430.3047,-259.4312 435.6745,-250.2979 425.7811,-254.0891 430.3047,-259.4312"/>
</g>
<!-- iron_hardend_plate -->
<g id="node7" class="node">
<title>iron_hardend_plate</title>
<ellipse fill="none" stroke="#000000" cx="98.1914" cy="-378" rx="98.3832" ry="18"/>
<text text-anchor="middle" x="98.1914" y="-373.8" font-family="Times,serif" font-size="14.00" fill="#000000">iron_hardend_plate 24</text>
</g>
<!-- iron_hardend_plate&#45;&gt;energy_plate -->
<g id="edge10" class="edge">
<title>iron_hardend_plate-&gt;energy_plate</title>
<path fill="none" stroke="#000000" d="M97.182,-359.8314C96.7542,-352.131 96.2455,-342.9743 95.7701,-334.4166"/>
<polygon fill="#000000" stroke="#000000" points="99.2638,-334.2037 95.2144,-324.4133 92.2745,-334.592 99.2638,-334.2037"/>
</g>
<!-- iron_ingot -->
<g id="node8" class="node">
<title>iron_ingot</title>
<ellipse fill="none" stroke="#000000" cx="143.1914" cy="-522" rx="63.189" ry="18"/>
<text text-anchor="middle" x="143.1914" y="-517.8" font-family="Times,serif" font-size="14.00" fill="#000000">iron_ingot 66</text>
</g>
<!-- iron_ingot&#45;&gt;iron_hardend_plate -->
<g id="edge11" class="edge">
<title>iron_ingot-&gt;iron_hardend_plate</title>
<path fill="none" stroke="#000000" d="M133.1579,-503.9677C127.7843,-493.6852 121.4198,-480.4098 117.1914,-468 110.3349,-447.8768 105.4714,-424.3447 102.3823,-406.3908"/>
<polygon fill="#000000" stroke="#000000" points="105.7957,-405.5767 100.7266,-396.2732 98.8876,-406.7073 105.7957,-405.5767"/>
</g>
<!-- iron_plate -->
<g id="node10" class="node">
<title>iron_plate</title>
<ellipse fill="none" stroke="#000000" cx="188.1914" cy="-450" rx="62.0225" ry="18"/>
<text text-anchor="middle" x="188.1914" y="-445.8" font-family="Times,serif" font-size="14.00" fill="#000000">iron_plate 32</text>
</g>
<!-- iron_ingot&#45;&gt;iron_plate -->
<g id="edge14" class="edge">
<title>iron_ingot-&gt;iron_plate</title>
<path fill="none" stroke="#000000" d="M154.315,-504.2022C159.5615,-495.8079 165.9278,-485.6218 171.719,-476.3558"/>
<polygon fill="#000000" stroke="#000000" points="174.7078,-478.1776 177.0398,-467.8425 168.7718,-474.4675 174.7078,-478.1776"/>
</g>
<!-- iron_ore -->
<g id="node9" class="node">
<title>iron_ore</title>
<ellipse fill="none" stroke="#000000" cx="143.1914" cy="-594" rx="55.6437" ry="18"/>
<text text-anchor="middle" x="143.1914" y="-589.8" font-family="Times,serif" font-size="14.00" fill="#000000">iron_ore 49</text>
</g>
<!-- iron_ore&#45;&gt;iron_ingot -->
<g id="edge13" class="edge">
<title>iron_ore-&gt;iron_ingot</title>
<path fill="none" stroke="#000000" d="M143.1914,-575.8314C143.1914,-568.131 143.1914,-558.9743 143.1914,-550.4166"/>
<polygon fill="#000000" stroke="#000000" points="146.6915,-550.4132 143.1914,-540.4133 139.6915,-550.4133 146.6915,-550.4132"/>
</g>
<!-- iron_plate&#45;&gt;iron_hardend_plate -->
<g id="edge12" class="edge">
<title>iron_plate-&gt;iron_hardend_plate</title>
<path fill="none" stroke="#000000" d="M166.8627,-432.937C155.3497,-423.7266 140.9469,-412.2044 128.3089,-402.094"/>
<polygon fill="#000000" stroke="#000000" points="130.3021,-399.2064 120.3069,-395.6924 125.9292,-404.6725 130.3021,-399.2064"/>
</g>
<!-- coil -->
<g id="node14" class="node">
<title>coil</title>
<ellipse fill="none" stroke="#000000" cx="565.1914" cy="-306" rx="37.6806" ry="18"/>
<text text-anchor="middle" x="565.1914" y="-301.8" font-family="Times,serif" font-size="14.00" fill="#000000">coil 37</text>
</g>
<!-- iron_plate&#45;&gt;coil -->
<g id="edge21" class="edge">
<title>iron_plate-&gt;coil</title>
<path fill="none" stroke="#000000" d="M248.7217,-445.5652C329.0834,-438.7052 465.6929,-423.3676 507.1914,-396 529.9651,-380.9811 545.6889,-353.6043 554.9615,-332.9744"/>
<polygon fill="#000000" stroke="#000000" points="558.189,-334.3284 558.884,-323.7563 551.7479,-331.5875 558.189,-334.3284"/>
</g>
<!-- cristal_powder&#45;&gt;cristal_core -->
<g id="edge8" class="edge">
<title>cristal_powder-&gt;cristal_core</title>
<path fill="none" stroke="#000000" d="M244.3732,-288.5708C233.3871,-279.3732 219.7408,-267.9484 207.7777,-257.9328"/>
<polygon fill="#000000" stroke="#000000" points="209.7323,-255.0044 199.8179,-251.2687 205.2387,-260.3717 209.7323,-255.0044"/>
</g>
<!-- data_core -->
<g id="node17" class="node">
<title>data_core</title>
<ellipse fill="none" stroke="#000000" cx="309.1914" cy="-90" rx="55.6206" ry="18"/>
<text text-anchor="middle" x="309.1914" y="-85.8" font-family="Times,serif" font-size="14.00" fill="#000000">data_core 2</text>
</g>
<!-- cristal_powder&#45;&gt;data_core -->
<g id="edge25" class="edge">
<title>cristal_powder-&gt;data_core</title>
<path fill="none" stroke="#000000" d="M267.8621,-287.9092C272.4255,-257.8555 282.3843,-195.8159 294.1914,-144 296.1278,-135.5019 298.5457,-126.3393 300.871,-118.0176"/>
<polygon fill="#000000" stroke="#000000" points="304.2411,-118.9622 303.6228,-108.3854 297.5104,-117.0392 304.2411,-118.9622"/>
</g>
<!-- silica -->
<g id="node12" class="node">
<title>silica</title>
<ellipse fill="none" stroke="#000000" cx="455.1914" cy="-378" rx="43.4754" ry="18"/>
<text text-anchor="middle" x="455.1914" y="-373.8" font-family="Times,serif" font-size="14.00" fill="#000000">silica 21</text>
</g>
<!-- silica&#45;&gt;cristal_powder -->
<g id="edge15" class="edge">
<title>silica-&gt;cristal_powder</title>
<path fill="none" stroke="#000000" d="M422.9605,-365.7862C393.6663,-354.6852 349.959,-338.1225 315.9715,-325.243"/>
<polygon fill="#000000" stroke="#000000" points="316.8052,-321.8161 306.2139,-321.5454 314.3247,-328.3619 316.8052,-321.8161"/>
</g>
<!-- silica&#45;&gt;coil -->
<g id="edge20" class="edge">
<title>silica-&gt;coil</title>
<path fill="none" stroke="#000000" d="M478.5196,-362.7307C494.6308,-352.1851 516.2424,-338.0394 533.8542,-326.5116"/>
<polygon fill="#000000" stroke="#000000" points="536.199,-329.16 542.6492,-320.7549 532.3653,-323.3031 536.199,-329.16"/>
</g>
<!-- silicium -->
<g id="node15" class="node">
<title>silicium</title>
<ellipse fill="none" stroke="#000000" cx="455.1914" cy="-306" rx="54.4515" ry="18"/>
<text text-anchor="middle" x="455.1914" y="-301.8" font-family="Times,serif" font-size="14.00" fill="#000000">silicium 37</text>
</g>
<!-- silica&#45;&gt;silicium -->
<g id="edge22" class="edge">
<title>silica-&gt;silicium</title>
<path fill="none" stroke="#000000" d="M455.1914,-359.8314C455.1914,-352.131 455.1914,-342.9743 455.1914,-334.4166"/>
<polygon fill="#000000" stroke="#000000" points="458.6915,-334.4132 455.1914,-324.4133 451.6915,-334.4133 458.6915,-334.4132"/>
</g>
<!-- cable&#45;&gt;optic_cable -->
<g id="edge6" class="edge">
<title>cable-&gt;optic_cable</title>
<path fill="none" stroke="#000000" d="M457.9672,-215.8314C459.1436,-208.131 460.5425,-198.9743 461.85,-190.4166"/>
<polygon fill="#000000" stroke="#000000" points="465.3278,-190.8272 463.3783,-180.4133 458.4081,-189.7699 465.3278,-190.8272"/>
</g>
<!-- cable&#45;&gt;frame -->
<g id="edge23" class="edge">
<title>cable-&gt;frame</title>
<path fill="none" stroke="#000000" d="M431.6512,-218.7307C415.5018,-208.2554 393.8759,-194.2278 376.1694,-182.7425"/>
<polygon fill="#000000" stroke="#000000" points="377.6114,-179.506 367.3171,-177.0004 373.802,-185.3788 377.6114,-179.506"/>
</g>
<!-- coil&#45;&gt;cable -->
<g id="edge17" class="edge">
<title>coil-&gt;cable</title>
<path fill="none" stroke="#000000" d="M542.9313,-291.4297C526.8542,-280.9066 504.9091,-266.5425 486.9883,-254.8125"/>
<polygon fill="#000000" stroke="#000000" points="488.8413,-251.8423 478.5574,-249.2941 485.0076,-257.6992 488.8413,-251.8423"/>
</g>
<!-- silicium&#45;&gt;cable -->
<g id="edge19" class="edge">
<title>silicium-&gt;cable</title>
<path fill="none" stroke="#000000" d="M455.1914,-287.8314C455.1914,-280.131 455.1914,-270.9743 455.1914,-262.4166"/>
<polygon fill="#000000" stroke="#000000" points="458.6915,-262.4132 455.1914,-252.4133 451.6915,-262.4133 458.6915,-262.4132"/>
</g>
<!-- frame&#45;&gt;matrix -->
<g id="edge4" class="edge">
<title>frame-&gt;matrix</title>
<path fill="none" stroke="#000000" d="M362.7985,-145.6621C373.7294,-136.0642 387.7235,-123.7767 399.7815,-113.1891"/>
<polygon fill="#000000" stroke="#000000" points="402.169,-115.7506 407.3741,-106.5225 397.5504,-110.4905 402.169,-115.7506"/>
</g>
<!-- frame&#45;&gt;data_core -->
<g id="edge26" class="edge">
<title>frame-&gt;data_core</title>
<path fill="none" stroke="#000000" d="M335.5397,-144.2022C331.5433,-135.981 326.7113,-126.041 322.2824,-116.9301"/>
<polygon fill="#000000" stroke="#000000" points="325.3846,-115.306 317.8649,-107.8425 319.0891,-118.3664 325.3846,-115.306"/>
</g>
<!-- data_core&#45;&gt;robotic -->
<g id="edge2" class="edge">
<title>data_core-&gt;robotic</title>
<path fill="none" stroke="#000000" d="M323.2316,-72.5708C330.3558,-63.7269 339.1388,-52.8239 346.9764,-43.0945"/>
<polygon fill="#000000" stroke="#000000" points="349.7328,-45.2519 353.2805,-35.2687 344.2815,-40.8606 349.7328,-45.2519"/>
</g>
</g>
</svg>